<?xml version="1.0" encoding="UTF-8"?>
<svg id="Layer_2" data-name="Layer 2" xmlns="http://www.w3.org/2000/svg" xmlns:xlink="http://www.w3.org/1999/xlink" viewBox="0 0 281 281">
  <defs>
    <style>
      .cls-1 {
        fill: #fff;
      }

      .cls-2 {
        fill: url(#linear-gradient);
      }
    </style>
    <linearGradient id="linear-gradient" x1="48.85" y1="49.75" x2="231.01" y2="230.12" gradientUnits="userSpaceOnUse">
      <stop offset="0" stop-color="#f38298"/>
      <stop offset=".57" stop-color="#fab155"/>
      <stop offset="1" stop-color="#ffd327"/>
    </linearGradient>
  </defs>
  <g id="Layer_1-2" data-name="Layer 1">
    <rect class="cls-2" x="0" y="0" width="281" height="281" rx="140.5" ry="140.5"/>
    <path class="cls-1" d="M141.64,45.78c8.37,0,16.12.81,23.25,2.43,7.13,1.62,14.98,3.38,23.54,5.28.76,7.42,1.38,14.84,1.85,22.25.47,7.42.9,15.41,1.28,23.97-.76,1.14-1.81,1.71-3.14,1.71h-.29c-.76,0-2.24-.04-4.42-.14-2.19-.09-3.38-.71-3.57-1.85-.57-3.99-1.81-8.37-3.71-13.12-1.9-4.75-4.47-9.32-7.7-13.69-3.24-4.37-6.99-7.99-11.27-10.84-4.28-2.85-9.08-4.28-14.41-4.28-3.62,0-7.23.71-10.84,2.14-3.62,1.43-6.66,3.9-9.13,7.42-2.47,3.52-3.71,8.42-3.71,14.69,0,5.71,2.18,11.27,6.56,16.69,4.37,5.42,9.65,10.46,15.83,15.12,6.18,4.66,12.13,8.89,17.83,12.7,6.08,3.99,12.31,8.32,18.69,12.98,6.37,4.66,11.7,10.46,15.98,17.4,4.28,6.95,6.42,15.93,6.42,26.96,0,10.08-2.95,19.02-8.84,26.82-5.9,7.8-13.46,13.89-22.68,18.26-9.23,4.37-18.97,6.56-29.24,6.56-8.18,0-16.98-.76-26.39-2.28-9.42-1.52-18.31-3.23-26.68-5.13-.95-4.18-1.9-9.51-2.85-15.98-.95-6.46-1.76-12.7-2.42-18.69-.67-5.99-1.1-10.22-1.28-12.7.57-.95,1.85-1.81,3.85-2.57,2-.76,3.38-1.14,4.14-1.14,2.28,0,3.52.67,3.71,2,.57,3.81,2.09,8.23,4.56,13.27,2.47,5.04,5.66,9.99,9.56,14.84,3.9,4.85,8.46,8.84,13.69,11.98,5.23,3.14,10.98,4.71,17.26,4.71,7.23,0,13.55-2.04,18.97-6.13,5.42-4.09,8.13-11.08,8.13-20.97,0-4.94-1.48-9.65-4.42-14.12-2.95-4.47-6.61-8.6-10.98-12.41-4.38-3.8-8.94-7.32-13.69-10.56-4.76-3.23-8.84-5.99-12.27-8.27-6.66-4.57-13.12-9.22-19.4-13.98-6.28-4.75-11.37-10.36-15.26-16.83-3.9-6.46-5.85-14.55-5.85-24.25s2.95-18.3,8.84-25.82c5.89-7.51,13.41-13.45,22.54-17.83,9.13-4.37,18.45-6.56,27.96-6.56Z"/>
  </g>
</svg>